<svg xmlns="http://www.w3.org/2000/svg" viewBox="0 0 512 512"><path fill="#C0C0C0" fill-rule="evenodd" d="M124,72L388,72L440,124L440,388L388,440L124,440L72,388L72,124Z M130,81L382,81L431,130L431,382L382,431L130,431L81,382L81,130Z"/><path fill="#1F2833" d="M134,88L378,88L424,134L424,378L378,424L134,424L88,378L88,134Z"/><path fill="#F0F3F4" d="M166,145L175,136L337,136L346,145L346,179L337,188L227,188L218,197L218,221L227,230L337,230L346,239L346,367L337,376L175,376L166,367L166,333L175,324L285,324L294,315L294,291L285,282L175,282L166,273Z"/><path fill="#00F0FF" d="M384,80L430,126L422,134L376,88Z"/></svg>