<svg xmlns="http://www.w3.org/2000/svg" viewBox="0 0 512 512"><path fill="#B87333" d="M371.8,91.7L359.5,85.8L346,80.5L332.3,76.4L318.6,73.6L304.8,71.9L291,71.4L277.4,72.1L264,74L250.8,77.1L238,81.5L225.6,87.1L213.8,93.8L202.6,101.8L192.1,111L182.5,121.3L173.6,132.9L166.1,145.7L160.8,159.4L158.3,173.4L158.5,187.3L161.3,200.5L166.3,212.4L172.9,223.1L180.7,232.6L189.3,241L198.7,248.4L208.5,255L218.6,260.9L229,266.1L239.5,270.7L250.1,274.6L259.9,277.7L270.6,281.1L279.7,284.4L287.7,287.9L294.6,291.5L300.3,295.1L304.9,298.7L308.3,302.1L310.8,305.4L312.6,308.6L313.8,312.1L314.5,316.1L314.7,321L314.1,327.1L312.5,334.3L309.7,342.8L305.9,351.8L301.5,359.2L296.4,365.5L290.5,371L283.7,375.8L276,379.8L267.7,383.1L258.7,385.6L249.2,387.2L239.4,388L229.4,387.8L219.4,386.8L209.6,385L200.2,382.3L191.3,378.9L183.1,374.8L174.5,369.3L145.5,414.7L156.5,421.8L169.5,428.3L183.2,433.5L197.2,437.5L211.7,440.3L226.3,441.7L241.1,441.9L255.8,440.8L270.4,438.3L284.7,434.3L298.7,428.8L312,421.7L324.5,412.9L335.8,402.4L345.9,390L354.1,376.2L360.2,361.9L364.5,348.8L367.4,335.8L368.7,323L368.3,310.5L366,298.3L361.9,286.7L356.2,276.1L349,266.6L340.7,258.3L331.5,251L321.5,244.7L310.9,239.2L299.7,234.3L287.9,230L276.1,226.3L267.7,223.6L259.7,220.6L251.9,217.2L244.2,213.4L237.1,209.3L230.6,204.9L225,200.4L220.3,195.9L216.8,191.6L214.3,187.7L212.8,184.2L212.1,181.1L212.1,178L212.7,174.3L214.6,169.5L218.4,163.1L223.7,156.2L229.7,149.8L236.1,144.2L243,139.3L250.2,135.1L257.8,131.7L265.8,129L274,127L282.6,125.8L291.4,125.4L300.5,125.7L309.7,126.8L319,128.8L328.4,131.6L337.9,135.3L348.2,140.3Z"/><circle fill="#D4975C" cx="152" cy="440" r="17"/></svg>