<svg xmlns="http://www.w3.org/2000/svg" viewBox="0 0 512 512"><path fill="currentColor" fill-rule="evenodd" d="M482,256 A226,226 0 1 0 30,256 A226,226 0 1 0 482,256Z M448,256 A192,192 0 1 0 64,256 A192,192 0 1 0 448,256Z"/><path fill="currentColor" d="M473.9,213.6 A222,222 0 0 1 473.9,298.4 L448.4,293.4 A196,196 0 0 0 448.4,218.6Z"/><path fill="currentColor" d="M440,380.1 A222,222 0 0 1 380.1,440 L365.6,418.5 A196,196 0 0 0 418.5,365.6Z"/><path fill="currentColor" d="M298.4,473.9 A222,222 0 0 1 213.6,473.9 L218.6,448.4 A196,196 0 0 0 293.4,448.4Z"/><path fill="currentColor" d="M131.9,440 A222,222 0 0 1 72,380.1 L93.5,365.6 A196,196 0 0 0 146.4,418.5Z"/><path fill="currentColor" d="M38.1,298.4 A222,222 0 0 1 38.1,213.6 L63.6,218.6 A196,196 0 0 0 63.6,293.4Z"/><path fill="currentColor" d="M72,131.9 A222,222 0 0 1 131.9,72 L146.4,93.5 A196,196 0 0 0 93.5,146.4Z"/><path fill="currentColor" d="M213.6,38.1 A222,222 0 0 1 298.4,38.1 L293.4,63.6 A196,196 0 0 0 218.6,63.6Z"/><path fill="currentColor" d="M380.1,72 A222,222 0 0 1 440,131.9 L418.5,146.4 A196,196 0 0 0 365.6,93.5Z"/><circle fill="currentColor" cx="230" cy="152" r="22"/><circle fill="currentColor" cx="282" cy="152" r="22"/><circle fill="currentColor" cx="334" cy="152" r="22"/><circle fill="currentColor" cx="178" cy="204" r="22"/><circle fill="currentColor" cx="230" cy="256" r="22"/><circle fill="currentColor" cx="282" cy="256" r="22"/><circle fill="currentColor" cx="334" cy="308" r="22"/><circle fill="currentColor" cx="178" cy="360" r="22"/><circle fill="currentColor" cx="230" cy="360" r="22"/><circle fill="currentColor" cx="282" cy="360" r="22"/></svg>