<svg viewBox="0 0 512 512" xmlns="http://www.w3.org/2000/svg" role="img" aria-label="Saturday Shakes — metallic contour shaker S"><defs>
<linearGradient id="goldTop" x1="150" y1="48" x2="360" y2="320" gradientUnits="userSpaceOnUse">
<stop offset="0" stop-color="#6E431A"/><stop offset="0.14" stop-color="#D9A85C"/>
<stop offset="0.30" stop-color="#8C5B24"/><stop offset="0.46" stop-color="#FFE3A1"/>
<stop offset="0.58" stop-color="#A8752F"/><stop offset="0.74" stop-color="#F0C87E"/>
<stop offset="0.88" stop-color="#7C4E1E"/><stop offset="1" stop-color="#E9BC6C"/>
</linearGradient>
<linearGradient id="goldBot" x1="362" y1="212" x2="152" y2="464" gradientUnits="userSpaceOnUse">
<stop offset="0" stop-color="#6E431A"/><stop offset="0.16" stop-color="#E9BC6C"/>
<stop offset="0.34" stop-color="#8C5B24"/><stop offset="0.50" stop-color="#FFE3A1"/>
<stop offset="0.64" stop-color="#A8752F"/><stop offset="0.80" stop-color="#F0C87E"/>
<stop offset="1" stop-color="#7C4E1E"/>
</linearGradient>
</defs><path fill="url(#goldTop)" fill-rule="evenodd" d="M161.7,306.7L168.7,309.6L177,311.7L184.8,312.4L192.1,311.7L199.1,309.9L205.7,307L212,303.2L218,298.4L223.8,292.9L229.3,286.8L234.7,280.1L240,273L245.1,265.6L250.2,258L255.2,250.2L260.3,242.5L265.4,234.9L270.6,227.5L275.9,220.5L281.3,213.9L287,207.8L292.8,202.4L298.9,197.8L305.3,194L312.1,191.2L319.2,189.6L326.7,189.1L334.6,189.9L343.1,192.2L352,196L350.6,192.2L349.2,188.3L347.7,184.3L346.3,180.3L344.8,176.2L343.4,172L341.9,167.8L340.4,163.6L338.9,159.3L337.4,154.9L335.9,150.5L334.4,146L332.8,141.5L331.3,136.9L329.8,132.2L328.2,127.6L326.6,122.9L325.1,118.1L323.5,113.3L321.9,108.4L320.3,103.6L318.8,98.6L317.2,93.7L315.6,88.7L314,83.6L312.4,78.6L310.8,73.5L309.2,68.3L307.6,63.2L296,48L216,48L216,52L213.6,57.7L211.3,63.8L208.9,70.5L206.6,77.5L204.4,85L202.1,92.9L199.9,101.1L197.7,109.7L195.6,118.5L193.5,127.6L191.4,137L189.4,146.5L187.4,156.2L185.4,166L183.5,176L181.6,186L179.8,196.1L178,206.2L176.2,216.3L174.5,226.4L172.9,236.4L171.2,246.2L169.7,256L168.1,265.6L166.6,275L165.2,284.1L163.8,293.1L162.5,301.7Z M176.2,298.1L179.2,298.8L184.8,299.3L189.9,298.9L194.8,297.6L199.7,295.5L204.5,292.5L209.5,288.6L214.5,283.9L219.5,278.4L224.4,272.2L229.4,265.5L234.4,258.3L239.3,250.8L244.4,243.1L249.4,235.4L249.5,235.3L254.6,227.7L254.8,227.4L259.9,220.1L260.2,219.7L265.5,212.7L265.9,212.2L271.3,205.6L271.8,205L277.4,198.9L278.2,198.2L284,192.8L285,192L291.1,187.4L292.4,186.5L298.8,182.8L300.4,182L307.1,179.2L309.1,178.6L316.2,176.9L318.4,176.6L325.9,176.1L328.1,176.2L331.2,176.5L331.1,176.4L331.1,176.4L329.6,172.2L329.6,172.1L328.1,167.9L328.1,167.8L326.6,163.5L326.6,163.5L325.1,159.1L325.1,159.1L323.6,154.7L323.6,154.7L322.1,150.2L322.1,150.1L320.5,145.6L320.5,145.6L319,141L319,141L317.4,136.4L317.4,136.4L315.9,131.7L315.9,131.7L314.3,126.9L314.3,126.9L312.7,122.2L312.7,122.1L311.1,117.3L311.1,117.3L309.6,112.5L309.6,112.4L308,107.6L308,107.5L306.4,102.6L306.4,102.6L304.8,97.6L304.8,97.6L303.2,92.6L303.2,92.6L301.6,87.6L301.6,87.5L300,82.5L300,82.5L298.4,77.4L298.4,77.3L296.8,72.2L296.8,72.2L295.9,69.2L289.6,61L226.3,61L225.7,62.5L223.5,68.3L221.2,74.6L219,81.4L216.8,88.7L214.6,96.4L212.5,104.4L210.3,112.8L208.2,121.5L206.2,130.5L204.1,139.7L202.1,149.2L200.1,158.8L198.2,168.5L196.3,178.4L194.4,188.4L192.6,198.4L190.8,208.5L189,218.5L187.3,228.5L185.7,238.5L184.1,248.3L182.5,258L181,267.6L179.5,277L178.1,286.1L176.7,295Z"/><path fill="url(#goldBot)" fill-rule="evenodd" d="M160,338L160.9,342.4L161.9,346.7L163,351L164.2,355.3L165.5,359.5L167,363.7L168.5,367.9L170.1,372L171.8,376.1L173.6,380.1L175.4,384.2L177.3,388.2L179.2,392.1L181.2,396.1L183.2,400L185.3,403.9L187.4,407.7L189.5,411.6L191.6,415.4L193.8,419.2L195.9,423L198,426.7L200.1,430.4L202.2,434.1L204.3,437.8L206.3,441.5L208.3,445.1L210.3,448.8L212.2,452.4L220,464L292,464L298,456L300,452.2L302,447.8L304.1,443.1L306.2,437.9L308.2,432.3L310.3,426.4L312.4,420L314.5,413.4L316.6,406.4L318.7,399.2L320.7,391.7L322.8,383.9L324.8,376L326.8,367.8L328.8,359.5L330.7,351L332.6,342.4L334.4,333.7L336.2,325L338,316.1L339.7,307.3L341.4,298.4L342.9,289.6L344.5,280.8L345.9,272L347.3,263.4L348.6,254.8L349.8,246.4L351,238.1L361,226L360.5,226.5L360,227L359.4,227.4L358.7,227.8L358,228.1L357.1,228.3L356.3,228.4L355.3,228.4L354.3,228.4L353.2,228.2L352,228L342.4,224.4L333.4,222.3L325.1,221.6L317.3,222.3L310.1,224.1L303.4,227L297.1,230.8L291.3,235.6L285.7,241L280.4,247.2L275.4,253.9L270.6,261L265.9,268.4L261.3,276L256.8,283.8L252.2,291.5L247.6,299.1L242.8,306.5L238,313.5L232.9,320.1L227.6,326.2L221.9,331.6L215.9,336.2L209.5,340L202.7,342.8L195.4,344.4L187.5,344.9L179,344.1L169.8,341.8Z M178.4,357.1L179.2,359.4L180.6,363.3L182.2,367.1L183.8,371L185.4,374.9L187.2,378.7L189,382.5L190.9,386.4L192.8,390.2L194.8,394L196.8,397.7L198.8,401.5L200.9,405.3L203,409L205.1,412.8L207.2,416.5L209.3,420.3L211.5,424L211.5,424L213.6,427.7L213.6,427.8L215.6,431.5L215.7,431.5L217.7,435.2L217.8,435.3L219.7,438.9L219.8,439L221.7,442.6L221.8,442.8L223.4,445.7L226.9,451L285.5,451L287,449L288.4,446.4L290.2,442.5L292.1,438.1L294,433.2L296,427.9L298,422.2L300.1,416L302.1,409.6L304.1,402.8L306.1,395.7L308.2,388.3L310.2,380.7L312.2,372.8L314.1,364.8L316.1,356.6L318,348.2L319.9,339.7L321.7,331.1L323.5,322.4L325.2,313.6L326.9,304.9L328.6,296.1L330.1,287.3L331.6,278.6L333.1,269.9L334.5,261.4L335.7,252.9L336.9,244.6L338,236.7L331.4,235.2L325.1,234.7L319.5,235.1L314.3,236.4L309.4,238.5L304.7,241.5L299.9,245.3L295.2,249.9L290.6,255.3L286,261.4L281.5,268.1L277,275.2L272.5,282.7L268,290.3L267.9,290.4L263.4,298.1L263.3,298.2L258.7,305.8L258.5,306.1L253.8,313.5L253.5,313.9L248.7,320.9L248.3,321.5L243.2,328.1L242.6,328.7L237.3,334.8L236.5,335.6L230.9,341L229.9,341.9L223.9,346.5L222.5,347.5L216.1,351.2L214.4,352.1L207.6,354.8L205.6,355.4L198.2,357.1L196.1,357.4L188.2,357.9L186.2,357.8Z"/></svg>