<svg xmlns="http://www.w3.org/2000/svg" viewBox="0 0 512 512"><defs>
<linearGradient id="goldTop" x1="96" y1="64" x2="416" y2="300" gradientUnits="userSpaceOnUse">
<stop offset="0" stop-color="#6E431A"/><stop offset="0.14" stop-color="#D9A85C"/>
<stop offset="0.30" stop-color="#8C5B24"/><stop offset="0.46" stop-color="#FFE3A1"/>
<stop offset="0.58" stop-color="#A8752F"/><stop offset="0.74" stop-color="#F0C87E"/>
<stop offset="0.88" stop-color="#7C4E1E"/><stop offset="1" stop-color="#E9BC6C"/>
</linearGradient>
<linearGradient id="goldBot" x1="420" y1="214" x2="116" y2="448" gradientUnits="userSpaceOnUse">
<stop offset="0" stop-color="#6E431A"/><stop offset="0.16" stop-color="#E9BC6C"/>
<stop offset="0.34" stop-color="#8C5B24"/><stop offset="0.50" stop-color="#FFE3A1"/>
<stop offset="0.64" stop-color="#A8752F"/><stop offset="0.80" stop-color="#F0C87E"/>
<stop offset="1" stop-color="#7C4E1E"/>
</linearGradient>
</defs><path fill="url(#goldTop)" fill-rule="evenodd" d="M208,64L208,76L202.9,80.9L197.8,86.3L192.8,92.1L187.8,98.3L182.9,104.8L178.1,111.6L173.3,118.8L168.7,126.3L164,134L159.5,141.9L155.1,150.1L150.7,158.4L146.4,166.9L142.2,175.5L138.2,184.2L134.2,193L130.3,201.9L126.6,210.8L122.9,219.7L119.4,228.6L116,237.4L112.8,246.2L109.6,254.9L106.6,263.5L103.7,271.9L101,280.1L98.4,288.2L96,296L106.6,298.9L117.1,300.2L127.5,300.1L137.7,298.8L147.8,296.3L157.8,292.8L167.6,288.4L177.4,283.1L187,277.2L196.6,270.6L206.1,263.6L215.4,256.3L224.8,248.7L234,241L243.2,233.3L252.3,225.7L261.4,218.4L270.4,211.4L279.4,204.8L288.4,198.9L297.4,193.6L306.3,189.2L315.2,185.7L324.2,183.2L333.1,181.9L342.1,181.8L351,183.1L360,186L357.4,182.8L354.9,179.5L352.3,176.2L349.7,172.9L347.2,169.5L344.7,166.1L342.1,162.6L339.6,159.1L337.1,155.6L334.7,152L332.2,148.3L329.8,144.6L327.4,140.8L325,137L322.7,133.1L320.3,129.2L318.1,125.1L315.8,121.1L313.6,116.9L311.5,112.7L309.4,108.4L307.3,104L305.3,99.5L303.3,95L301.4,90.4L299.5,85.7L297.7,80.9L280,64Z M111.3,287.3L117.9,288.2L126.7,288.2L135.5,287L144.4,284.8L153.3,281.7L162.3,277.6L171.4,272.7L180.5,267.1L189.6,260.8L198.8,254.1L208,246.9L217.1,239.4L226.3,231.8L235.5,224.1L235.5,224.1L244.7,216.5L244.8,216.4L253.8,209L254.1,208.9L263.1,201.9L263.4,201.7L272.4,195.1L272.8,194.8L281.8,188.9L282.3,188.5L291.3,183.3L292,182.9L301,178.4L301.9,178L310.8,174.5L312,174.1L321,171.6L322.4,171.3L331.4,170L332.6,169.9L332.4,169.7L332.4,169.6L329.9,166.1L329.8,166L327.3,162.5L327.2,162.4L324.8,158.8L324.7,158.6L322.2,155L322.2,154.9L319.7,151.2L319.7,151L317.3,147.3L317.2,147.1L314.8,143.3L314.7,143.2L312.4,139.3L312.3,139.2L310,135.2L309.9,135.1L307.6,131.1L307.6,130.9L305.3,126.8L305.2,126.7L303,122.5L303,122.4L300.8,118.1L300.7,118L298.6,113.7L298.5,113.5L296.5,109.1L296.4,108.9L294.4,104.5L294.3,104.3L292.3,99.8L292.2,99.6L290.3,95L290.2,94.8L288.4,90.1L288.3,89.9L287.5,87.7L275.2,76L220,76L219.8,78.4L219,80.7L217.9,82.8L216.3,84.6L211.4,89.4L206.7,94.4L202,99.8L197.3,105.6L192.6,111.8L188,118.4L183.4,125.3L178.9,132.5L174.4,140L170,147.8L165.6,155.7L161.4,163.9L157.2,172.2L153.1,180.7L149.1,189.2L145.2,197.9L141.4,206.6L137.7,215.4L134.1,224.2L130.6,233L127.3,241.7L124,250.3L120.9,258.9L118,267.4L115.1,275.7L112.4,283.8Z"/><path fill="url(#goldBot)" fill-rule="evenodd" d="M152,324L152.7,328.1L153.5,332.1L154.5,336.2L155.5,340.2L156.6,344.2L157.9,348.2L159.2,352.2L160.6,356.2L162.1,360.2L163.7,364.1L165.4,368.1L167.1,372.1L168.9,376L170.8,380L172.7,384L174.6,387.9L176.6,391.9L178.6,395.9L180.7,399.8L182.8,403.8L184.9,407.8L187,411.8L189.2,415.8L191.4,419.8L193.5,423.8L195.7,427.9L197.9,431.9L216,448L296,448L316,436L319.7,431.7L323.4,427.1L327.2,422.1L331.1,416.7L335,410.9L338.9,404.9L342.9,398.5L346.8,391.8L350.8,384.8L354.8,377.6L358.8,370L362.7,362.3L366.6,354.2L370.5,346L374.3,337.5L378.1,328.9L381.8,320L385.5,311L389,301.8L392.5,292.5L395.9,283L399.1,273.4L402.3,263.7L405.3,253.9L408.2,244L411,234.1L413.6,224.1L416,214L407.3,211.7L398.5,210.9L389.5,211.4L380.4,213.1L371.1,215.8L361.7,219.6L352.2,224.2L342.7,229.5L333,235.5L323.3,242L313.5,249L303.7,256.2L293.9,263.7L284,271.2L274.1,278.8L264.3,286.2L254.5,293.3L244.7,300.1L235,306.4L225.3,312.2L215.8,317.2L206.3,321.5L196.9,324.8L187.6,327.1L178.5,328.3L169.5,328.3L160.7,326.9Z M168,340.2L168.1,340.8L169.3,344.5L170.6,348.3L171.9,352L173.3,355.8L174.8,359.6L176.4,363.4L178.1,367.2L179.8,371L181.6,374.9L183.4,378.7L185.3,382.6L187.3,386.5L189.3,390.4L191.3,394.3L193.4,398.2L195.5,402.2L197.6,406.1L199.8,410.1L201.9,414.1L204.1,418.2L204.1,418.2L206.3,422.2L206.3,422.2L207.4,424.4L220.5,436L292.7,436L308.2,426.7L310.5,424L314,419.7L317.6,414.9L321.3,409.8L325,404.3L328.8,398.5L332.6,392.3L336.5,385.8L340.3,379L344.2,371.9L348.1,364.5L352,356.9L355.8,349.1L359.6,341L363.4,332.7L367.1,324.2L370.7,315.5L374.3,306.6L377.8,297.5L381.2,288.4L384.5,279.1L387.8,269.6L390.9,260.1L393.8,250.4L396.7,240.7L399.4,231L401.4,223.2L398.3,222.9L390.9,223.3L383.2,224.7L375.1,227.2L366.6,230.5L357.8,234.8L348.8,239.9L339.5,245.6L330.1,251.9L320.6,258.7L310.9,265.9L301.1,273.2L291.3,280.8L291.3,280.8L281.4,288.3L281.4,288.4L271.5,295.8L271.4,295.9L261.5,303L261.3,303.2L251.6,310L251.3,310.2L241.5,316.5L241.1,316.7L231.5,322.5L230.9,322.8L221.4,327.8L220.7,328.2L211.2,332.4L210.3,332.8L200.9,336.1L199.8,336.5L190.5,338.8L189.2,339L180,340.2L178.4,340.3L169.4,340.3Z"/></svg>