<svg viewBox="0 0 512 512" xmlns="http://www.w3.org/2000/svg" role="img" aria-label="Saturday Solutions hex-path S">
  <!-- Hex Path S: 9 flat-top hexagonal board-game tiles snaking in an S.
       Path start (top-right) and end (bottom-left) marked in Neon Yellow. -->
  <g fill="#F0F3F4">
    <path d="M 290.0,122.22 273.0,151.67 239.0,151.67 222.0,122.22 239.0,92.78 273.0,92.78 Z"/>
    <path d="M 214.0,189.11 197.0,218.56 163.0,218.56 146.0,189.11 163.0,159.67 197.0,159.67 Z"/>
    <path d="M 214.0,256.0 197.0,285.44 163.0,285.44 146.0,256.0 163.0,226.56 197.0,226.56 Z"/>
    <path d="M 290.0,256.0 273.0,285.44 239.0,285.44 222.0,256.0 239.0,226.56 273.0,226.56 Z"/>
    <path d="M 366.0,256.0 349.0,285.44 315.0,285.44 298.0,256.0 315.0,226.56 349.0,226.56 Z"/>
    <path d="M 366.0,322.89 349.0,352.33 315.0,352.33 298.0,322.89 315.0,293.44 349.0,293.44 Z"/>
    <path d="M 290.0,389.78 273.0,419.22 239.0,419.22 222.0,389.78 239.0,360.33 273.0,360.33 Z"/>
  </g>
  <g fill="#FFE600">
    <path d="M 366.0,122.22 349.0,151.67 315.0,151.67 298.0,122.22 315.0,92.78 349.0,92.78 Z"/>
    <path d="M 214.0,389.78 197.0,419.22 163.0,419.22 146.0,389.78 163.0,360.33 197.0,360.33 Z"/>
  </g>
</svg>
